PathFileType	4	(X/Y/Z)	C:\Github\BTS_project\Data\sports2d_results\test6 Exam_2026-03-06_143334_tvc4_Sports2D\test6 Exam_2026-03-06_143334_tvc4_Sports2D_m_person00.trc
DataRate	CameraRate	NumFrames	NumMarkers	Units	OrigDataRate	OrigDataStartFrame	OrigNumFrames
30.0	30.0	8	22	m	30.0	98	112
Frame#	Time	Hip			RHip			RKnee			RAnkle			RBigToe			RSmallToe			RHeel			LHip			LKnee			LAnkle			LBigToe			LSmallToe			LHeel			Neck			Head			Nose			RShoulder			RElbow			RWrist			LShoulder			LElbow			LWrist			
		X1	Y1	Z1	X2	Y2	Z2	X3	Y3	Z3	X4	Y4	Z4	X5	Y5	Z5	X6	Y6	Z6	X7	Y7	Z7	X8	Y8	Z8	X9	Y9	Z9	X10	Y10	Z10	X11	Y11	Z11	X12	Y12	Z12	X13	Y13	Z13	X14	Y14	Z14	X15	Y15	Z15	X16	Y16	Z16	X17	Y17	Z17	X18	Y18	Z18	X19	Y19	Z19	X20	Y20	Z20	X21	Y21	Z21	X22	Y22	Z22
206	6.898021308980213	1.3496726401277208	1.3790352897719202	0.0301	1.1624134854905295	1.3578274456615675	0.0301	0.9866692394788349	0.809535327759415	0.129	0.8169169660239817	0.21202492680420276	0.023	0.8915928030213773	0.0400744259273486	0.2179	0.7700715075129505	0.0444247179376676	0.1804	0.7728954137201757	0.10886676921426956	-0.0119	1.520170889492681	1.2940631866670855	0.0301	1.5030376261533072	0.74750091531916	0.129	1.4287758598778444	0.18728634213668321	0.023	1.584933757687293	0.038996618491058156	0.2179	1.6094755389079918	0.041543169666857456	0.1804	1.3384866453605748	0.07947232364161991	-0.0119	1.4633232907706029	2.3461851353410026	0.0008	1.5056979957829857	2.7571974182773924	0.0655	1.5753232302211593	2.5355429872481383	0.1076	1.1267352739303351	2.231260924945158	-0.01275	0.9536573072618055	1.857611071120622	0.0702	1.2558949669293251	1.8635390027112246	0.1076	1.715449244147988	2.15986542735023	-0.01275	1.81446622139334	1.7544864099669037	0.0702	1.6702024198509813	1.7373369191926324	0.1076
207	6.931506849315068	1.3509321773203993	1.382028469665176	0.0301	1.1601115762256502	1.3624135874668528	0.0301	0.9866249652044071	0.8097801358692827	0.129	0.8154498110119288	0.21245307589506274	0.023	0.8893132392064106	0.03998302409711882	0.2179	0.7701841347236753	0.04445782104092243	0.1804	0.77393179963695	0.11011193685707674	-0.0119	1.5210609693902892	1.296354001404866	0.0301	1.502806314003199	0.7477552310902332	0.129	1.4285695654354373	0.18871957999659997	0.023	1.583242051268288	0.03816762576543849	0.2179	1.6062679763602994	0.04156723298538348	0.1804	1.3395964096294402	0.07908775140516384	-0.0119	1.46207408238259	2.3519701546061746	0.0008	1.5064056040795502	2.7571610584869033	0.0655	1.5722359604981417	2.5346506483479017	0.1076	1.1265450364076721	2.231162590464418	-0.01275	0.9532724488124512	1.8576505388397235	0.0702	1.256280255886414	1.8654905375592565	0.1076	1.7127740790139512	2.16033909638274	-0.01275	1.811025501375488	1.751913829957812	0.0702	1.6727643990200087	1.738280321210327	0.1076
208	6.9649923896499235	1.3526563162352494	1.3867559057139571	0.0301	1.159199539333963	1.3688647312375863	0.0301	0.9865288828167039	0.8103199954086115	0.129	0.8141177017235401	0.21291095532156087	0.023	0.8892394001350475	0.04032960650910505	0.2179	0.7709657013399778	0.04496574933497866	0.1804	0.7738250883816551	0.11332143970268313	-0.0119	1.5253909120513114	1.3012674101119484	0.0301	1.5026663859128306	0.7482721150211242	0.129	1.4282288025282905	0.18909208117499013	0.023	1.583583998897376	0.03651761565345671	0.2179	1.6058920031787136	0.0415519447431812	0.1804	1.3411820917417707	0.08052746776737914	-0.0119	1.4598001851801938	2.3580173332734815	0.0008	1.5089046452965178	2.757858962727219	0.0655	1.5715206034908187	2.5336416589324346	0.1076	1.1271181697036632	2.2322694247919035	-0.01275	0.951318553638467	1.8566242884462498	0.0702	1.2575518395054825	1.8671403714514325	0.1076	1.7105231150914488	2.161839654123105	-0.01275	1.8102131472574217	1.749784642302795	0.0702	1.6764182193471628	1.7396880118898446	0.1076
209	6.998477929984779	1.352590816941781	1.387813778314343	0.0301	1.1584097230814012	1.3727597059542047	0.0301	0.9863020276592401	0.8109046421737192	0.129	0.8136255105219244	0.21238608557938818	0.023	0.8917019519630832	0.04036324935911947	0.2179	0.7714935420492178	0.045516110813502327	0.1804	0.7726457353526199	0.11570870133305156	-0.0119	1.5299418750225917	1.3044149781826893	0.0301	1.5023552025399414	0.7489711133778209	0.129	1.4274615275438443	0.18609021741928577	0.023	1.5812832182164478	0.0349507424089249	0.2179	1.6054687190842971	0.04086692929226495	0.1804	1.3418710200602681	0.08177845288745515	-0.0119	1.4578170226571179	2.358388827368835	0.0008	1.5101455783998505	2.7586518303513383	0.0655	1.572379488736532	2.533220855371064	0.1076	1.1268126467808455	2.2334060555527495	-0.01275	0.9489386503869983	1.8558637165319525	0.0702	1.255408585698277	1.8663890759400577	0.1076	1.709601903970964	2.163303409805221	-0.01275	1.8110542650845018	1.7476922247453004	0.0702	1.676223203294	1.7413474743479418	0.1076
210	7.031963470319634	1.3503385130875931	1.3855897687741183	0.0301	1.1576901951683776	1.372414512607436	0.0301	0.9860972425379829	0.8108076056684391	0.129	0.8138587703740433	0.21185918892272765	0.023	0.89443389241294	0.03891879355949069	0.2179	0.7719242940033073	0.04567557431925883	0.1804	0.7712215384403932	0.11557735276647353	-0.0119	1.531142349270674	1.3039049752479897	0.0301	1.5017591802869632	0.7493979662075064	0.129	1.426518153473706	0.18242358298469946	0.023	1.5761493175789993	0.03436573861038708	0.2179	1.6036398210349254	0.04023692329379736	0.1804	1.3413673715893224	0.08184304312194225	-0.0119	1.4565403514816573	2.3547977713626262	0.0008	1.5091224214300425	2.758314412963868	0.0655	1.5719816208435395	2.5308597020124823	0.1076	1.1243902913143906	2.232533350968859	-0.01275	0.9475529486126023	1.855240478338602	0.0702	1.2512379094493122	1.8642777343037857	0.1076	1.7095200740586671	2.1640684199546554	-0.01275	1.8118699877102384	1.7463605572991554	0.0702	1.672691861793161	1.7432073669123411	0.1076
211	7.06544901065449	1.347720581569443	1.3843649352217142	0.0301	1.1578888284097253	1.3702832376694265	0.0301	0.9859498118429192	0.8097351451169394	0.129	0.8143160891021134	0.21179021006508483	0.023	0.8950351352026524	0.03727465710450591	0.2179	0.7725362180803729	0.045690598329266315	0.1804	0.7695976756381381	0.11391129689386956	-0.0119	1.5291581680001525	1.302087459358248	0.0301	1.5012049013793671	0.749367040076059	0.129	1.4259393954655686	0.18165044233257388	0.023	1.5722646011185069	0.03478581515104354	0.2179	1.601999786728804	0.04031033942307675	0.1804	1.3410464918536018	0.08148582376166806	-0.0119	1.4558520502831416	2.3527456335199024	0.0008	1.5071671069054517	2.756624731757247	0.0655	1.5707446497364403	2.525985884931177	0.1076	1.1205315094468256	2.2300571479313933	-0.01275	0.9474097344146579	1.8543257657630796	0.0702	1.2484148698532735	1.8629964261965302	0.1076	1.7094255380818548	2.1645525491583153	-0.01275	1.8123624823602211	1.7463148072998411	0.0702	1.6704185145568728	1.7443046653109815	0.1076
212	7.098934550989345	1.346239310576903	1.3849327375586362	0.0301	1.1575562220233901	1.3685881705290397	0.0301	0.9851492471164671	0.8082016455862897	0.129	0.8138908681517811	0.2113717201872745	0.023	0.8941567388074758	0.0372361205595004	0.2179	0.7723510766667431	0.04627607678081282	0.1804	0.7681057267606548	0.11246167026337177	-0.0119	1.5259975527386476	1.3007351647140926	0.0301	1.5013474671061255	0.7490783179835655	0.129	1.4261115495852636	0.18247676705377602	0.023	1.568858005137214	0.03483421714944699	0.2179	1.5998193320289373	0.04020643242579515	0.1804	1.3411726854333996	0.08071992634275366	-0.0119	1.4558557166412067	2.3530729095039398	0.0008	1.505848607210889	2.754653854115854	0.0655	1.569694865362466	2.5231844239206223	0.1076	1.1170258383665381	2.228123479551266	-0.01275	0.948232969259488	1.8541266837645287	0.0702	1.244747913061813	1.8625536327952799	0.1076	1.709556984301968	2.1647700493599835	-0.01275	1.8129444010564584	1.747549809478661	0.0702	1.6710780491274657	1.7434834533942818	0.1076
213	7.1324200913242	1.3456190872175768	1.3849620306877877	0.0301	1.1555018300234827	1.3667769165039247	0.0301	0.9832226756264634	0.8071980696799027	0.129	0.8125003996539027	0.20977942286748077	0.023	0.8934910556898411	0.0376935536158328	0.2179	0.7704780607560546	0.046840040705740764	0.1804	0.7679524295079238	0.11167466243377398	-0.0119	1.5224803903463753	1.29912168498814	0.0301	1.5018604741185477	0.7490267487242074	0.129	1.426552961973298	0.18249377283916818	0.023	1.5622904292757034	0.03352438823833582	0.2179	1.5948217222594885	0.03892486107322619	0.1804	1.3408445965994855	0.07880212678559924	-0.0119	1.4558878807552513	2.352529462037099	0.0008	1.5043935456217286	2.7536814341871696	0.0655	1.5677791295837222	2.5253479849603586	0.1076	1.1152330154224332	2.2273363239202153	-0.01275	0.9491009314240691	1.8547503077635865	0.0702	1.2376327988268678	1.8618792590683029	0.1076	1.7102098273194875	2.1645189329437633	-0.01275	1.813545631758304	1.7494032518734568	0.0702	1.6737115372893636	1.7409646466937772	0.1076
